<?xml version="1.0" encoding="UTF-8"?>
<svg width="14px" height="14px" viewBox="0 0 14 14" version="1.1" xmlns="http://www.w3.org/2000/svg" xmlns:xlink="http://www.w3.org/1999/xlink">
    <defs></defs>
    <g id="Artboard-Copy" transform="translate(-409.000000, -114.000000)" fill="#585856" fill-rule="evenodd">
        <path d="M415.213461,122.847199 L410.5,127.56066 L409.43934,126.5 L414.152801,121.786539 C413.584884,121.003811 413.25,120.041014 413.25,119 C413.25,116.376647 415.376647,114.25 418,114.25 C420.623353,114.25 422.75,116.376647 422.75,119 C422.75,121.623353 420.623353,123.75 418,123.75 C416.958986,123.75 415.996189,123.415116 415.213461,122.847199 Z M418,122.25 C419.794925,122.25 421.25,120.794925 421.25,119 C421.25,117.205075 419.794925,115.75 418,115.75 C416.205075,115.75 414.75,117.205075 414.75,119 C414.75,120.794925 416.205075,122.25 418,122.25 Z" id="Combined-Shape"></path>
    </g>
</svg>